<svg xmlns="http://www.w3.org/2000/svg" width="256" height="256" viewBox="0 0 256 256">
  <defs>
    <linearGradient id="bg" x1="0" y1="0" x2="1" y2="1">
      <stop offset="0%" stop-color="#0f172a"/>
      <stop offset="100%" stop-color="#1d4ed8"/>
    </linearGradient>
    <linearGradient id="paper" x1="0" y1="0" x2="0" y2="1">
      <stop offset="0%" stop-color="#ffffff"/>
      <stop offset="100%" stop-color="#dbe7f5"/>
    </linearGradient>
    <linearGradient id="sweep" x1="0" y1="0" x2="1" y2="1">
      <stop offset="0%" stop-color="#7dd3fc"/>
      <stop offset="100%" stop-color="#38bdf8"/>
    </linearGradient>
  </defs>
  <rect x="12" y="12" width="232" height="232" rx="44" fill="url(#bg)"/>
  <path d="M80 44h74l36 36v132H80z" fill="url(#paper)"/>
  <path d="M154 44v36h36z" fill="#b6c7da"/>
  <rect x="100" y="104" width="66" height="12" rx="6" fill="#1d4ed8"/>
  <rect x="100" y="130" width="54" height="12" rx="6" fill="#60a5fa"/>
  <rect x="100" y="156" width="46" height="12" rx="6" fill="#93c5fd"/>
  <path d="M58 174c26-34 64-52 110-54 0 0-30 18-42 42-10 20-8 44-8 44s-31 1-60-32z" fill="url(#sweep)"/>
  <path d="M132 88l42 42" stroke="#f8fafc" stroke-width="10" stroke-linecap="round" opacity="0.9"/>
  <path d="M168 82l10 10" stroke="#f8fafc" stroke-width="10" stroke-linecap="round" opacity="0.9"/>
</svg>
